<?xml version="1.0" encoding="utf-8"?>
<!-- Generator: Adobe Illustrator 26.0.3, SVG Export Plug-In . SVG Version: 6.00 Build 0)  -->
<svg version="1.1" id="Camada_1" xmlns="http://www.w3.org/2000/svg" xmlns:xlink="http://www.w3.org/1999/xlink" x="0px" y="0px"
	 viewBox="0 0 4502.6 4502.6" style="enable-background:new 0 0 4502.6 4502.6;" xml:space="preserve">
<style type="text/css">
	.st0{fill:#005E9E;}
	.st1{fill:#0085BA;}
	.st2{fill:#00AAB9;}
	.st3{fill:#00CBA2;}
	.st4{fill:#8FE682;}
	.st5{fill:#F9F871;}
	.st6{fill:none;}
	.st7{fill:url(#XMLID_00000013910735628707413640000017831705211129715596_);}
	.st8{fill:url(#XMLID_00000181081052412919725790000002480260519475326631_);}
	.st9{fill:url(#XMLID_00000037659034203938129200000004713566854325977010_);}
	.st10{fill:url(#XMLID_00000101063152253402995810000014366237337094244484_);}
	.st11{fill:#EFE930;}
	.st12{fill:#005E9E;stroke:#005E9E;stroke-miterlimit:10;}
	.st13{fill:none;stroke:#005E9E;stroke-miterlimit:10;}
	.st14{fill:url(#XMLID_00000045619480600321527860000016649462040866048151_);}
	.st15{fill:url(#XMLID_00000174565077445500318890000007328411556787862912_);}
	.st16{fill:url(#XMLID_00000096036791801259381490000012531487639247113116_);}
	.st17{fill:url(#XMLID_00000040568156453518935110000018049790969464462750_);}
</style>
<g>
	<g>
		<g>
			<path class="st12" d="M1435.8,3697.7h0.7c16.7,0,31.5,6.9,44.3,20.6c11.5,13.7,17.2,29.2,17.2,46.5l-0.3,0.3h-112.2
				c0,16.5,6.2,30.8,18.6,42.9c9.8,8.5,20.5,12.7,32.1,12.7c15.5,0,28.7-7.1,39.6-21.1c3-4.4,5.4-8.7,7.1-12.8l0.1-1
				c6.9,2.2,10.3,3.4,10.3,3.8c-2,5.4-4.7,10.6-8,15.8c-13.3,17.5-29.8,26.2-49.5,26.2c-18.4,0-34.3-8.3-47.7-24.8
				c-9-12.7-13.5-26.7-13.5-41.9v-0.4c0-18.5,6.4-34.6,19.2-48.4C1406.1,3703.8,1420.1,3697.7,1435.8,3697.7z M1386.3,3754.2h99.7
				c-0.2-3.4-2.1-9.1-5.6-17.2c-7-12.9-16.5-21.5-28.8-25.8c-4.9-1.8-10.1-2.7-15.7-2.7c-14.8,0-27.5,6.6-38.4,19.7
				C1392.1,3735,1388.4,3743.7,1386.3,3754.2z"/>
			<path class="st12" d="M1531.1,3625.1h10.9l0.1,0.1v206.2l-0.1,0.1h-10.9l-0.1-0.1v-206.2L1531.1,3625.1z"/>
			<path class="st12" d="M1634.2,3697.7h0.7c16.7,0,31.5,6.9,44.3,20.6c11.5,13.7,17.2,29.2,17.2,46.5l-0.3,0.3h-112.2
				c0,16.5,6.2,30.8,18.6,42.9c9.8,8.5,20.5,12.7,32.1,12.7c15.5,0,28.7-7.1,39.6-21.1c3-4.4,5.4-8.7,7.1-12.8l0.1-1
				c6.9,2.2,10.3,3.4,10.3,3.8c-2,5.4-4.7,10.6-8,15.8c-13.3,17.5-29.8,26.2-49.5,26.2c-18.4,0-34.3-8.3-47.7-24.8
				c-9-12.7-13.5-26.7-13.5-41.9v-0.4c0-18.5,6.4-34.6,19.2-48.4C1604.5,3703.8,1618.5,3697.7,1634.2,3697.7z M1584.7,3754.2h99.7
				c-0.2-3.4-2.1-9.1-5.6-17.2c-7-12.9-16.5-21.5-28.8-25.8c-4.9-1.8-10.1-2.7-15.7-2.7c-14.8,0-27.5,6.6-38.4,19.7
				C1590.5,3735,1586.8,3743.7,1584.7,3754.2z"/>
			<path class="st12" d="M1738.7,3625.1h10.9l0.1,0.1v72.3h39.6l0.1,0.1v10.9l-0.1,0.1h-39.6v87.4c0,6.9,1.6,12.6,4.9,17.1
				c1.5,1.9,2.9,3.2,4.1,3.8c3.5,2.4,6.8,3.5,10,3.5h0.6c4,0,9.4-1.5,16.2-4.5c0.8-0.5,1.4-0.7,1.6-0.7l4.8,10
				c-2.3,1.2-5.9,2.6-11,4.2c-4.5,1.3-8.2,2-11,2h-1.7c-4.7,0-9.6-1.6-14.8-4.7c-1.3-0.8-3.2-2.3-5.6-4.7c-2.9-3.2-5.1-6.8-6.5-10.7
				c-1.7-5-2.5-9.9-2.5-14.7v-88.1h-26.1l-0.1-0.1v-10.9l0.1-0.1h26.1V3625.1z"/>
			<path class="st12" d="M1873.8,3696.6c8.9,0,16.5,2.1,22.8,6.2c-1.6,8.6-2.5,12.8-2.8,12.8c-7.4-4.4-14.5-6.6-21.1-6.6h-1.1
				c-8.6,0-16.8,2.7-24.7,8c-4.5,4-7.2,7.3-8.2,9.9c-3.3,6.2-4.9,12.5-4.9,18.8v85.5l-0.4,0.4H1823l-0.4-0.4v-131.4l0.4-0.3h10.3
				l0.4,0.3v14.9h0.1c0-0.5,2.1-2.5,6.2-6.2C1849.7,3700.5,1860.9,3696.6,1873.8,3696.6z"/>
			<path class="st12" d="M1928.8,3625.1h1c2.3,0,4.4,1,6.3,3c1.4,1.9,2.1,3.7,2.1,5.4v1.4c0,2.2-1,4.2-3.1,6.2
				c-1.7,1.4-3.6,2.1-5.8,2.1c-3.3,0-5.9-1.5-7.9-4.5c-0.8-1.4-1.1-2.8-1.1-4.1v-0.8c0-2.6,1.2-4.9,3.7-6.9
				C1925.7,3625.6,1927.3,3625.1,1928.8,3625.1z M1934.8,3697.5v133.8l-0.1,0.1h-10.9l-0.1-0.1v-133.8H1934.8z"/>
			<path class="st12" d="M2031,3697.5h0.7c17.5,0,32.8,7.5,45.8,22.4l4.7,6.8c-5.6,3.8-8.7,5.6-9.2,5.6c-11.1-16-25.1-24-41.9-24
				c-15.8,0-29.3,7.4-40.5,22.3c-6.8,10.6-10.2,21.9-10.2,33.7c0,18.4,7.1,33.8,21.4,46c9.2,6.9,19,10.3,29.3,10.3
				c16.4,0,30.1-7.8,41.3-23.4c0.4-0.6,0.7-1,0.8-1.3c5.7,3.5,8.7,5.5,9,5.9c-7.6,12.6-18.8,21.6-33.4,26.9c-6,1.8-12,2.7-18,2.7
				c-16.6,0-31.4-6.8-44.1-20.4c-11.5-13.4-17.2-28.9-17.2-46.2v-0.6c0-18.4,6.4-34.6,19.2-48.4
				C2001.3,3703.6,2015.3,3697.5,2031,3697.5z"/>
			<path class="st12" d="M2223.8,3695h0.3c13.3,0,24.7,4.4,34.3,13.3c3,3,5,5.3,5.9,6.9c0.8,1.1,1.4,2,1.6,2.5l-9.9,5.2
				c-2.6-4.3-6.5-8.1-11.6-11.4c-6.2-3.6-13-5.4-20.4-5.4c-10.3,0-18.9,2.7-25.5,8.2c-2.6,2.4-4.2,4.2-4.7,5.2
				c-2.7,4-4.1,8.2-4.1,12.4v1c0,6,2.9,10.8,8.6,14.2c2.9,1.9,7.1,3.8,12.7,5.6c7.1,2.3,16.4,4.5,27.8,6.6c4.4,1.2,8,2.5,10.9,3.9
				c2.4,1.1,4.8,2.7,7.3,4.7c2.4,2,4.2,3.9,5.6,5.6c4.6,6.1,6.9,12.8,6.9,20.2c0,8.4-2.9,16.1-8.6,23.3c-2.4,2.6-4.1,4.4-5.4,5.2
				c-3.2,2.4-5.9,4-8.2,5.1c-7.7,3.7-15.9,5.5-24.5,5.5c-11.8,0-22.4-3.3-31.9-9.9c-1.7-1.2-4-3.2-6.9-6.1l-1.8-2
				c-2.7-3.4-4.7-6.2-5.9-8.5c-0.6-0.9-1-1.8-1.4-2.7c3.5-1.9,6.8-3.5,9.9-4.9c4.9,9.5,12.2,16.1,21.9,19.9c5.4,2,10.8,3,16.2,3
				c8.6,0,16.4-2.2,23.4-6.5c4.9-3.1,8.4-7.5,10.6-13.1c1-2.7,1.6-5.4,1.6-7.9v-0.8c0-5.7-2.3-10.9-6.9-15.5
				c-3.5-3-7.5-5.3-12.1-6.8c-2.1-0.6-6.7-1.6-14-3c-13.9-3.2-23.7-6.4-29.3-9.6c-11.7-5.8-17.5-14.6-17.5-26.2
				c0-8.6,3.1-16.3,9.3-23.3c2.5-2.6,4.5-4.4,5.9-5.2C2202.1,3698,2212.1,3695,2223.8,3695z"/>
			<path class="st12" d="M2312.1,3625.1h10.9l0.1,0.1v72.3h39.6l0.1,0.1v10.9l-0.1,0.1H2323v87.4c0,6.9,1.6,12.6,4.9,17.1
				c1.5,1.9,2.9,3.2,4.1,3.8c3.5,2.4,6.8,3.5,10,3.5h0.6c4,0,9.4-1.5,16.2-4.5c0.8-0.5,1.4-0.7,1.6-0.7l4.8,10
				c-2.3,1.2-5.9,2.6-11,4.2c-4.5,1.3-8.2,2-11,2h-1.7c-4.7,0-9.6-1.6-14.8-4.7c-1.3-0.8-3.2-2.3-5.6-4.7c-2.9-3.2-5.1-6.8-6.5-10.7
				c-1.7-5-2.5-9.9-2.5-14.7v-88.1H2286l-0.1-0.1v-10.9l0.1-0.1h26.1V3625.1z"/>
			<path class="st12" d="M2448.7,3697.5h0.7c18.9,0,35,8.6,48.4,25.8l1.8,3h0.1v-27.1l0.4-0.4h10.2l0.3,0.4v130.6l-0.3,0.4h-10.2
				l-0.4-0.4v-27.1h-0.1c-7.3,11.9-18.1,20.5-32.4,25.8c-5.9,2-12.1,3-18.5,3c-18.5,0-34.5-8.3-47.8-24.8
				c-9-12.7-13.5-26.7-13.5-41.9v-0.6c0-18.4,6.4-34.6,19.2-48.4C2418.9,3703.6,2433,3697.5,2448.7,3697.5z M2398.2,3764.4
				c0,18.4,7.1,33.8,21.4,46c9.2,6.9,19,10.3,29.3,10.3c14.1,0,26.4-5.9,36.9-17.8c9.2-11.1,13.8-23.9,13.8-38.5
				c0-14.6-4.8-27.5-14.4-38.9c-10.4-11.4-22.6-17.1-36.5-17.1c-15.8,0-29.3,7.4-40.5,22.3
				C2401.6,3741.3,2398.2,3752.5,2398.2,3764.4z"/>
			<path class="st12" d="M2562.6,3625.1h10.9l0.1,0.1v72.3h39.6l0.1,0.1v10.9l-0.1,0.1h-39.6v87.4c0,6.9,1.6,12.6,4.9,17.1
				c1.5,1.9,2.9,3.2,4.1,3.8c3.5,2.4,6.8,3.5,10,3.5h0.6c4,0,9.4-1.5,16.2-4.5c0.8-0.5,1.4-0.7,1.6-0.7l4.8,10
				c-2.3,1.2-5.9,2.6-11,4.2c-4.5,1.3-8.2,2-11,2h-1.7c-4.7,0-9.6-1.6-14.8-4.7c-1.3-0.8-3.2-2.3-5.6-4.7c-2.9-3.2-5.1-6.8-6.5-10.7
				c-1.7-5-2.5-9.9-2.5-14.7v-88.1h-26.1l-0.1-0.1v-10.9l0.1-0.1h26.1V3625.1z"/>
			<path class="st12" d="M2652.2,3625.1h1c2.3,0,4.4,1,6.3,3c1.4,1.9,2.1,3.7,2.1,5.4v1.4c0,2.2-1,4.2-3.1,6.2
				c-1.7,1.4-3.6,2.1-5.8,2.1c-3.3,0-5.9-1.5-7.9-4.5c-0.8-1.4-1.1-2.8-1.1-4.1v-0.8c0-2.6,1.2-4.9,3.7-6.9
				C2649.1,3625.6,2650.7,3625.1,2652.2,3625.1z M2658.2,3697.5v133.8l-0.1,0.1h-10.9l-0.1-0.1v-133.8H2658.2z"/>
			<path class="st12" d="M2754.4,3697.5h0.7c18.3,0,34.1,8.1,47.2,24.3c9.3,13.1,14,27,14,41.7v2c0,18-6.5,34-19.6,48.1
				c-12.1,11.9-26.2,17.9-42.3,17.9c-18.5,0-34.5-8.3-47.8-24.8c-9-12.7-13.5-26.7-13.5-41.9v-0.6c0-18.4,6.4-34.6,19.2-48.4
				C2724.7,3703.6,2738.7,3697.5,2754.4,3697.5z M2703.9,3764.4c0,18.4,7.1,33.8,21.4,46c9.2,6.9,19,10.3,29.3,10.3
				c14.1,0,26.4-5.9,36.9-17.8c9.2-11.1,13.8-23.9,13.8-38.5c0-14.6-4.8-27.5-14.4-38.9c-10.4-11.4-22.6-17.1-36.5-17.1
				c-15.8,0-29.3,7.4-40.5,22.3C2707.3,3741.3,2703.9,3752.5,2703.9,3764.4z"/>
			<path class="st12" d="M2899.1,3697.5h9.5c18,0,31.8,6.5,41.3,19.6c4.8,7.2,7.2,15.8,7.2,25.7v88.3l-0.4,0.4h-10.3l-0.3-0.4v-86.9
				c0-17.6-7.9-28.8-23.5-33.6c-4.5-1.3-9.7-2-15.7-2h-6.1c-18.1,0-30.2,6.4-36.2,19.2c-1.9,4.2-2.8,9.6-2.8,16.2v87l-0.4,0.4H2851
				l-0.4-0.4v-131.3l0.4-0.4h10.3l0.4,0.4v15.1C2871.3,3703.3,2883.8,3697.5,2899.1,3697.5z"/>
			<path class="st12" d="M3038.3,3695h0.3c13.3,0,24.7,4.4,34.3,13.3c3,3,5,5.3,5.9,6.9c0.8,1.1,1.4,2,1.6,2.5l-9.9,5.2
				c-2.6-4.3-6.5-8.1-11.6-11.4c-6.2-3.6-13-5.4-20.4-5.4c-10.3,0-18.9,2.7-25.5,8.2c-2.6,2.4-4.2,4.2-4.7,5.2
				c-2.7,4-4.1,8.2-4.1,12.4v1c0,6,2.9,10.8,8.6,14.2c2.9,1.9,7.1,3.8,12.7,5.6c7.1,2.3,16.4,4.5,27.8,6.6c4.4,1.2,8,2.5,10.9,3.9
				c2.4,1.1,4.8,2.7,7.3,4.7c2.4,2,4.2,3.9,5.6,5.6c4.6,6.1,6.9,12.8,6.9,20.2c0,8.4-2.9,16.1-8.6,23.3c-2.4,2.6-4.1,4.4-5.4,5.2
				c-3.2,2.4-5.9,4-8.2,5.1c-7.7,3.7-15.9,5.5-24.5,5.5c-11.8,0-22.4-3.3-31.9-9.9c-1.7-1.2-4-3.2-6.9-6.1l-1.8-2
				c-2.7-3.4-4.7-6.2-5.9-8.5c-0.6-0.9-1-1.8-1.4-2.7c3.5-1.9,6.8-3.5,9.9-4.9c4.9,9.5,12.2,16.1,21.9,19.9c5.4,2,10.8,3,16.2,3
				c8.6,0,16.4-2.2,23.4-6.5c4.9-3.1,8.4-7.5,10.6-13.1c1-2.7,1.6-5.4,1.6-7.9v-0.8c0-5.7-2.3-10.9-6.9-15.5
				c-3.5-3-7.5-5.3-12.1-6.8c-2.1-0.6-6.7-1.6-14-3c-13.9-3.2-23.7-6.4-29.3-9.6c-11.7-5.8-17.5-14.6-17.5-26.2
				c0-8.6,3.1-16.3,9.3-23.3c2.5-2.6,4.5-4.4,5.9-5.2C3016.6,3698,3026.6,3695,3038.3,3695z"/>
		</g>
		<g>
			<path class="st0" d="M856.4,3472.3H821c-4.5,0-6.7-2-6.7-5.9v-492.2c0-4.5,2.2-6.7,6.7-6.7h204.8c60.1,0,109,16,146.7,48
				c37.6,32,56.5,75.6,56.5,130.6c0,55.1-18.8,98.6-56.5,130.6c-37.7,32-86,48-145,48H863.1v140.8
				C863.1,3470.1,860.9,3472.3,856.4,3472.3z M1024.9,3009.6l-163.5,0.8v273.9h163.5c46.1,0,83.7-12.4,112.9-37.1
				c28.7-24.2,43-57.6,43-100.3c0-42.1-14.3-75.6-43-100.3C1108.7,3022,1071,3009.6,1024.9,3009.6z"/>
			<path class="st0" d="M1582.9,2958.2h-0.8c77.5,0,142.2,23.6,193.9,70.8c51.7,47.2,77.5,110.4,77.5,189.6
				c0,79.2-25.9,142.4-77.5,189.6c-50.6,46.6-115.2,70-193.9,70c-77,0-141.3-23.3-193-70c-52.3-47.2-78.4-110.4-78.4-189.6
				c0-79.2,26.1-142.4,78.4-189.6C1441.3,2981.8,1505.9,2958.2,1582.9,2958.2z M1582.1,3000.3h-1.7c-62.9,0-116,20-159.3,59.8
				c-42.7,39.3-64.1,92.4-64.1,159.3c0,65.7,21.6,118.8,64.9,159.3c42.7,40.5,95.8,60.7,159.3,60.7c63.5,0,116.6-20.2,159.3-60.7
				c43.3-40.5,64.9-93.6,64.9-159.3c0-66.9-21.4-120-64.1-159.3C1698.1,3020.3,1645,3000.3,1582.1,3000.3z"/>
			<path class="st0" d="M2028.8,2973.4v456.8h297.5c1.7,0,3.4,0.8,5.1,2.5c1.7,1.7,2.5,3.4,2.5,5.1v27c0,1.7-0.8,3.4-2.5,5.1
				c-1.7,1.7-3.4,2.5-5.1,2.5h-338c-4.5,0-6.7-2.2-6.7-6.7v-492.2c0-4.5,2.2-6.7,6.7-6.7h33.7
				C2026.5,2966.6,2028.8,2968.9,2028.8,2973.4z"/>
			<path class="st0" d="M2477.2,2973.4v492.2c0,4.5-2.3,6.7-6.7,6.7h-33.7c-4.5,0-6.7-2.2-6.7-6.7v-492.2c0-4.5,2.2-6.7,6.7-6.7
				h33.7C2474.9,2966.6,2477.2,2968.9,2477.2,2973.4z"/>
			<path class="st0" d="M2851.4,3472.3h-209.9c-4.5,0-6.7-2-6.7-5.9v-492.2c0-4.5,2.2-6.7,6.7-6.7h207.3c78.1,0,143,23.3,194.7,70
				c51.7,46.6,77.5,107.3,77.5,182.1c0,77.5-23.9,139.1-71.6,184.6C3001.7,3449.6,2935.7,3472.3,2851.4,3472.3z M2848.9,3009.6
				l-167.7,0.8v421.4h168.6c73,0,128.4-18.8,166-56.5c38.2-38.2,57.3-89.6,57.3-154.2c0-63.5-21.1-114.6-63.2-153.4
				C2967.7,3029,2914.1,3009.6,2848.9,3009.6z"/>
			<path class="st0" d="M3635.3,3464.8l-53.1-106.2h-312.7l-53.9,106.2c-2.8,5.1-7,7.6-12.6,7.6h-32c-5.6,0-8.4-1.4-8.4-4.2
				c0-1.1,1.1-3.6,3.4-7.6l249.5-493.1h20.2l249.5,493.1c2.2,3.9,3.4,6.5,3.4,7.6c0,2.8-2.8,4.2-8.4,4.2h-32.9
				C3642,3472.3,3638.1,3469.8,3635.3,3464.8z M3390.9,3118.3l-101.1,198.1h270.6l-99.5-198.1l-33.7-80.9h-3.4
				C3410.8,3073.4,3399.8,3100.4,3390.9,3118.3z"/>
		</g>
	</g>
	
		<linearGradient id="XMLID_00000089552602302756851350000000315403031800245900_" gradientUnits="userSpaceOnUse" x1="2366.322" y1="1008.5394" x2="3203.4175" y2="1845.6349">
		<stop  offset="0" style="stop-color:#00AAB9"/>
		<stop  offset="1" style="stop-color:#005E9E"/>
	</linearGradient>
	
		<path id="XMLID_00000155113116964501796110000012987047139826296490_" style="fill:url(#XMLID_00000089552602302756851350000000315403031800245900_);" d="
		M2376.3,1279.9l4.3-110.7c147.6,176.2,304.2,302.3,439,387.7c0.3-0.4,0.5-0.8,0.8-1.1c38.3-54.1,57.4-116.2,57.4-186.3
		c0-52.8-11.9-100.6-35.6-143.3c-23.7-42.7-54.8-75.4-93.3-98.2c-38.5-22.7-78-35.9-118.5-39.6c-40.5-3.7-104.7-5.6-192.6-5.6
		h-271.1L2376.3,1279.9z"/>
	
		<linearGradient id="XMLID_00000119807624161968106260000007668125099824412858_" gradientUnits="userSpaceOnUse" x1="2721.0601" y1="1310.3394" x2="1304.3826" y2="2727.0168">
		<stop  offset="0" style="stop-color:#F9F871"/>
		<stop  offset="0.5502" style="stop-color:#00CBA2"/>
		<stop  offset="1" style="stop-color:#00AAB9"/>
	</linearGradient>
	
		<path id="XMLID_00000029726070653720528130000003911762904038484650_" style="fill:url(#XMLID_00000119807624161968106260000007668125099824412858_);" d="
		M2454.9,1379.1l-8.3,111.3c-121.2-54.6-256.2-179-346.8-272.1l0,0l34.6,56.9l-136.7,818.6h0c109,0,202.2-78.8,220.2-186.3
		l36.8-218.9h243.7c74.1,0,136.7-8.6,187.8-25.9c29.8-10.1,57.4-26.5,82.8-49c148.2,56,294.4,67.3,294.4,67.3
		C2729.6,1611.7,2454.9,1379.1,2454.9,1379.1z"/>
	<path id="XMLID_00000108294685897353731050000018225416380138099116_" class="st4" d="M3351.8,1398.1v-87.3
		c0-10.6-8.6-19.2-19.2-19.2c-10.6,0-19.2,8.6-19.2,19.2v87.3h-43.8H3226v-87.3c0-10.6-8.6-19.2-19.2-19.2l0,0
		c-10.6,0-19.2,8.6-19.2,19.2v87.3h-26.4v113.8c0,39,20.1,75.6,53.9,97.9c8,5.3,16.7,9.3,25.6,12c-17.7,463.4-400.2,835-867.9,835
		c-478.9,0-868.5-389.6-868.5-868.5s389.6-868.5,868.5-868.5c13.8,0,25-11.2,25-25s-11.2-25-25-25c-124,0-244.3,24.3-357.6,72.2
		c-109.4,46.3-207.6,112.5-292,196.9c-84.4,84.4-150.6,182.6-196.9,292c-47.9,113.3-72.2,233.6-72.2,357.6s24.3,244.3,72.2,357.6
		c46.3,109.4,112.5,207.6,196.9,292c84.4,84.4,182.6,150.6,292,196.9c113.3,47.9,233.6,72.2,357.6,72.2c124,0,244.3-24.3,357.6-72.2
		c109.4-46.3,207.6-112.5,292-196.9c84.4-84.4,150.6-182.6,196.9-292c43.3-102.4,67.3-210.5,71.5-321.9c11.7-2.6,23.1-7.3,33.5-14.1
		c33.7-22.3,53.9-58.9,53.9-97.9v-113.8H3351.8z"/>
</g>
</svg>
