<?xml version="1.0" encoding="utf-8"?>
<!-- Generator: Adobe Illustrator 26.0.3, SVG Export Plug-In . SVG Version: 6.00 Build 0)  -->
<svg version="1.1" id="Camada_1" xmlns="http://www.w3.org/2000/svg" xmlns:xlink="http://www.w3.org/1999/xlink" x="0px" y="0px"
	 viewBox="0 0 4502.6 4502.6" style="enable-background:new 0 0 4502.6 4502.6;" xml:space="preserve">
<style type="text/css">
	.st0{fill:#005E9E;}
	.st1{fill:#0085BA;}
	.st2{fill:#00AAB9;}
	.st3{fill:#00CBA2;}
	.st4{fill:#8FE682;}
	.st5{fill:#F9F871;}
	.st6{fill:none;}
	.st7{fill:url(#XMLID_00000088111334403704226230000007968806157331703453_);}
	.st8{fill:url(#XMLID_00000116947559321014257420000000351955565337125269_);}
	.st9{fill:url(#XMLID_00000103959107622851944180000017064698564025291675_);}
	.st10{fill:url(#XMLID_00000014592591791936224090000011829392547853025982_);}
	.st11{fill:#EFE930;}
	.st12{fill:#005E9E;stroke:#005E9E;stroke-miterlimit:10;}
	.st13{fill:none;stroke:#005E9E;stroke-miterlimit:10;}
	.st14{fill:url(#XMLID_00000099658506220728795120000000016480910434292624_);}
	.st15{fill:url(#XMLID_00000117647750125982205520000000215371190244800687_);}
	.st16{fill:url(#XMLID_00000075860506121262169150000013628817159279064253_);}
	.st17{fill:url(#XMLID_00000153670417036717384510000009641219994288546701_);}
</style>
<g>
	
		<linearGradient id="XMLID_00000108306373194089060050000013222965465136299964_" gradientUnits="userSpaceOnUse" x1="2179.8521" y1="1421.1763" x2="3378.4016" y2="2619.7256">
		<stop  offset="0" style="stop-color:#00AAB9"/>
		<stop  offset="1" style="stop-color:#005E9E"/>
	</linearGradient>
	
		<path id="XMLID_00000112604992011815732300000015340340642442704054_" style="fill:url(#XMLID_00000108306373194089060050000013222965465136299964_);" d="
		M2194.1,1809.6l6.1-158.5c211.4,252.3,435.6,432.8,628.5,555.1c0.4-0.5,0.8-1.1,1.2-1.6c54.8-77.4,82.2-166.3,82.2-266.8
		c0-75.7-17-144.1-50.9-205.2c-33.9-61.2-78.5-108-133.6-140.5c-55.2-32.5-111.7-51.4-169.7-56.7c-58-5.3-149.9-8-275.8-8h-388.2
		L2194.1,1809.6z"/>
	
		<linearGradient id="XMLID_00000173138553212310747170000014352193754588832181_" gradientUnits="userSpaceOnUse" x1="2687.7644" y1="1853.2919" x2="659.372" y2="3881.6843">
		<stop  offset="0" style="stop-color:#F9F871"/>
		<stop  offset="0.5502" style="stop-color:#00CBA2"/>
		<stop  offset="1" style="stop-color:#00AAB9"/>
	</linearGradient>
	
		<path id="XMLID_00000167398698045060847590000018015148032666904509_" style="fill:url(#XMLID_00000173138553212310747170000014352193754588832181_);" d="
		M2306.7,1951.8l-11.9,159.4c-173.5-78.2-366.8-256.2-496.6-389.6l0,0l49.5,81.5L1652,2975.2h0c156.1,0,289.4-112.8,315.3-266.7
		l52.7-313.5h349c106.1,0,195.7-12.4,268.9-37.1c42.7-14.4,82.2-37.9,118.6-70.2c212.2,80.2,421.5,96.4,421.6,96.4
		C2700,2284.8,2306.7,1951.8,2306.7,1951.8z"/>
	<path id="XMLID_00000026871531064241274480000007835106212926468995_" class="st4" d="M3590.9,1979v-125
		c0-15.1-12.3-27.4-27.4-27.4c-15.1,0-27.4,12.3-27.4,27.4v125h-62.7h-62.7v-125c0-15.1-12.3-27.4-27.4-27.4l0,0
		c-15.1,0-27.4,12.3-27.4,27.4v125h-37.8v162.9c0,55.9,28.8,108.2,77.1,140.2c11.5,7.6,23.9,13.3,36.6,17.3
		c-25.3,663.5-573,1195.5-1242.6,1195.5c-685.7,0-1243.6-557.9-1243.6-1243.6s557.9-1243.6,1243.6-1243.6
		c19.8,0,35.9-16.1,35.9-35.9c0-19.8-16.1-35.9-35.9-35.9c-177.5,0-349.8,34.8-512,103.4c-156.6,66.2-297.3,161.1-418.1,281.9
		c-120.8,120.8-215.6,261.4-281.9,418.1c-68.6,162.2-103.4,334.4-103.4,512s34.8,349.8,103.4,512
		c66.2,156.6,161.1,297.3,281.9,418.1c120.8,120.8,261.4,215.6,418.1,281.9c162.2,68.6,334.4,103.4,512,103.4s349.8-34.8,512-103.4
		c156.6-66.2,297.3-161.1,418.1-281.9c120.8-120.8,215.6-261.4,281.9-418.1c62-146.6,96.4-301.4,102.4-461
		c16.8-3.7,33.1-10.4,48-20.2c48.3-31.9,77.1-84.3,77.1-140.2V1979H3590.9z"/>
</g>
</svg>
