<?xml version="1.0" encoding="utf-8"?>
<!-- Generator: Adobe Illustrator 26.0.3, SVG Export Plug-In . SVG Version: 6.00 Build 0)  -->
<svg version="1.1" id="Camada_1" xmlns="http://www.w3.org/2000/svg" xmlns:xlink="http://www.w3.org/1999/xlink" x="0px" y="0px"
	 viewBox="0 0 4502.6 4502.6" style="enable-background:new 0 0 4502.6 4502.6;" xml:space="preserve">
<style type="text/css">
	.st0{fill:#005E9E;}
	.st1{fill:#0085BA;}
	.st2{fill:#00AAB9;}
	.st3{fill:#00CBA2;}
	.st4{fill:#8FE682;}
	.st5{fill:#F9F871;}
	.st6{fill:none;}
	.st7{fill:url(#XMLID_00000028291167840692468510000004080494550574140095_);}
	.st8{fill:url(#XMLID_00000098903877962893551100000008566931574842156716_);}
	.st9{fill:url(#XMLID_00000168824186932834180410000012198381568622270371_);}
	.st10{fill:url(#XMLID_00000092448161893097774910000018356119896787016873_);}
	.st11{fill:#EFE930;}
	.st12{fill:#005E9E;stroke:#005E9E;stroke-miterlimit:10;}
	.st13{fill:none;stroke:#005E9E;stroke-miterlimit:10;}
	.st14{fill:url(#XMLID_00000014595757625697027860000004608041816665663931_);}
	.st15{fill:url(#XMLID_00000125572309724283704620000005837109206417825707_);}
	.st16{fill:url(#XMLID_00000081614745185984153620000017604662897138822553_);}
	.st17{fill:url(#XMLID_00000061455536006361526020000008787525072866027451_);}
</style>
<g>
	<g>
		<path class="st12" d="M1150.8,2659h0.9c22.6,0,42.5,9.3,59.8,27.8c15.5,18.5,23.2,39.5,23.2,62.8l-0.4,0.4h-151.5
			c0,22.3,8.4,41.6,25.1,57.8c13.2,11.4,27.7,17.1,43.4,17.1c20.9,0,38.8-9.5,53.5-28.5c4.1-6,7.2-11.7,9.5-17.3l0.2-1.3
			c9.3,2.9,13.9,4.6,13.9,5.1c-2.7,7.2-6.3,14.3-10.8,21.3c-17.9,23.6-40.2,35.4-66.8,35.4c-24.9,0-46.3-11.2-64.3-33.5
			c-12.2-17.1-18.3-36-18.3-56.5v-0.6c0-25,8.6-46.7,25.9-65.3C1110.7,2667.3,1129.6,2659,1150.8,2659z M1084,2735.3h134.5
			c-0.3-4.6-2.8-12.3-7.6-23.2c-9.4-17.4-22.3-29-38.8-34.8c-6.6-2.4-13.6-3.6-21.1-3.6c-19.9,0-37.2,8.9-51.8,26.6
			C1091.8,2709.4,1086.8,2721.1,1084,2735.3z"/>
		<path class="st12" d="M1279.4,2561h14.7l0.2,0.2v278.2l-0.2,0.2h-14.7l-0.2-0.2v-278.2L1279.4,2561z"/>
		<path class="st12" d="M1418.5,2659h0.9c22.6,0,42.5,9.3,59.8,27.8c15.5,18.5,23.2,39.5,23.2,62.8l-0.4,0.4h-151.5
			c0,22.3,8.4,41.6,25.1,57.8c13.2,11.4,27.7,17.1,43.4,17.1c20.9,0,38.8-9.5,53.5-28.5c4.1-6,7.2-11.7,9.5-17.3l0.2-1.3
			c9.3,2.9,13.9,4.6,13.9,5.1c-2.7,7.2-6.3,14.3-10.8,21.3c-17.9,23.6-40.2,35.4-66.8,35.4c-24.9,0-46.3-11.2-64.3-33.5
			c-12.2-17.1-18.3-36-18.3-56.5v-0.6c0-25,8.6-46.7,25.9-65.3C1378.4,2667.3,1397.3,2659,1418.5,2659z M1351.7,2735.3h134.5
			c-0.3-4.6-2.8-12.3-7.6-23.2c-9.4-17.4-22.3-29-38.8-34.8c-6.6-2.4-13.6-3.6-21.1-3.6c-19.9,0-37.2,8.9-51.8,26.6
			C1359.6,2709.4,1354.5,2721.1,1351.7,2735.3z"/>
		<path class="st12" d="M1559.5,2561h14.7l0.2,0.2v97.6h53.5l0.2,0.2v14.7l-0.2,0.2h-53.5v118c0,9.3,2.2,16.9,6.7,23
			c2,2.5,3.9,4.3,5.5,5.1c4.7,3.2,9.2,4.8,13.5,4.8h0.8c5.5,0,12.7-2,21.9-6.1c1.1-0.6,1.8-1,2.1-1l6.5,13.5c-3,1.6-8,3.6-14.8,5.7
			c-6.1,1.8-11,2.7-14.8,2.7h-2.3c-6.3,0-13-2.1-20-6.3c-1.8-1-4.3-3.1-7.6-6.3c-3.9-4.3-6.9-9.1-8.7-14.5
			c-2.3-6.7-3.4-13.3-3.4-19.8v-118.9h-35.2l-0.2-0.2V2659l0.2-0.2h35.2V2561z"/>
		<path class="st12" d="M1741.8,2657.5c12,0,22.3,2.8,30.8,8.4c-2.2,11.5-3.4,17.3-3.8,17.3c-10-6-19.5-8.9-28.5-8.9h-1.5
			c-11.5,0-22.6,3.6-33.3,10.8c-6.1,5.5-9.8,9.9-11,13.3c-4.4,8.4-6.7,16.8-6.7,25.3V2839l-0.6,0.6h-13.9l-0.6-0.6v-177.4l0.6-0.4
			h13.9l0.6,0.4v20.2h0.2c0-0.6,2.8-3.4,8.4-8.4C1709.3,2662.8,1724.5,2657.5,1741.8,2657.5z"/>
		<path class="st12" d="M1816,2561h1.3c3,0,5.9,1.3,8.6,4c1.9,2.5,2.9,5,2.9,7.2v1.9c0,2.9-1.4,5.7-4.2,8.4
			c-2.3,1.9-4.9,2.9-7.8,2.9c-4.4,0-8-2-10.7-6.1c-1-1.9-1.5-3.7-1.5-5.5v-1.1c0-3.5,1.6-6.7,4.9-9.3
			C1811.9,2561.8,1814,2561,1816,2561z M1824.2,2658.8v180.6l-0.2,0.2h-14.7l-0.2-0.2v-180.6H1824.2z"/>
		<path class="st12" d="M1954,2658.8h1c23.6,0,44.2,10.1,61.8,30.3l6.3,9.1c-7.6,5.1-11.7,7.6-12.4,7.6
			c-15-21.6-33.8-32.4-56.5-32.4c-21.3,0-39.5,10-54.6,30.1c-9.1,14.3-13.7,29.5-13.7,45.5c0,24.9,9.6,45.5,28.9,62
			c12.4,9.3,25.6,13.9,39.6,13.9c22.1,0,40.7-10.5,55.8-31.6c0.5-0.8,0.9-1.3,1.1-1.7c7.7,4.7,11.8,7.4,12.2,8
			c-10.3,17-25.3,29.1-45.1,36.3c-8.1,2.4-16.2,3.6-24.4,3.6c-22.5,0-42.3-9.2-59.6-27.6c-15.5-18.1-23.2-38.9-23.2-62.4v-0.8
			c0-24.9,8.6-46.6,25.9-65.3C1913.9,2667.1,1932.8,2658.8,1954,2658.8z"/>
		<path class="st12" d="M2214.2,2655.4h0.4c17.9,0,33.3,6,46.2,17.9c4.1,4.1,6.7,7.2,8,9.3c1.1,1.5,1.8,2.7,2.1,3.4l-13.3,7
			c-3.6-5.8-8.8-11-15.6-15.4c-8.4-4.8-17.6-7.2-27.6-7.2c-14,0-25.4,3.7-34.4,11c-3.6,3.3-5.6,5.6-6.3,7c-3.7,5.5-5.5,11-5.5,16.7
			v1.3c0,8.1,3.9,14.5,11.6,19.2c3.9,2.5,9.6,5.1,17.1,7.6c9.6,3,22.1,6,37.5,8.9c6,1.6,10.8,3.4,14.7,5.3c3.2,1.5,6.5,3.6,9.9,6.3
			c3.2,2.7,5.7,5.2,7.6,7.6c6.2,8.3,9.3,17.3,9.3,27.2c0,11.3-3.9,21.8-11.6,31.4c-3.2,3.6-5.6,5.9-7.2,7c-4.3,3.2-8,5.5-11,6.9
			c-10.4,4.9-21.4,7.4-33.1,7.4c-15.9,0-30.2-4.4-43-13.3c-2.3-1.7-5.4-4.4-9.3-8.2l-2.5-2.7c-3.7-4.6-6.3-8.4-8-11.4
			c-0.8-1.3-1.4-2.5-1.9-3.6c4.7-2.5,9.1-4.8,13.3-6.7c6.6,12.8,16.4,21.8,29.5,26.8c7.2,2.7,14.5,4,21.9,4
			c11.5,0,22.1-2.9,31.6-8.8c6.6-4.2,11.3-10.1,14.3-17.7c1.4-3.7,2.1-7.2,2.1-10.7v-1.1c0-7.7-3.1-14.7-9.3-20.9
			c-4.7-4.1-10.1-7.1-16.4-9.1c-2.8-0.8-9.1-2.1-18.8-4c-18.8-4.3-32-8.6-39.6-12.9c-15.7-7.9-23.6-19.7-23.6-35.4
			c0-11.5,4.2-22,12.6-31.4c3.4-3.6,6.1-5.9,8-7C2184.9,2659.4,2198.4,2655.4,2214.2,2655.4z"/>
		<path class="st12" d="M2333.3,2561h14.7l0.2,0.2v97.6h53.5l0.2,0.2v14.7l-0.2,0.2h-53.5v118c0,9.3,2.2,16.9,6.7,23
			c2,2.5,3.9,4.3,5.5,5.1c4.7,3.2,9.2,4.8,13.5,4.8h0.8c5.5,0,12.7-2,21.9-6.1c1.1-0.6,1.8-1,2.1-1l6.5,13.5c-3,1.6-8,3.6-14.8,5.7
			c-6.1,1.8-11,2.7-14.8,2.7h-2.3c-6.3,0-13-2.1-20-6.3c-1.8-1-4.3-3.1-7.6-6.3c-3.9-4.3-6.9-9.1-8.7-14.5
			c-2.3-6.7-3.4-13.3-3.4-19.8v-118.9h-35.2l-0.2-0.2V2659l0.2-0.2h35.2V2561z"/>
		<path class="st12" d="M2517.7,2658.8h1c25.5,0,47.3,11.6,65.3,34.8l2.5,4h0.2v-36.5l0.6-0.6h13.7l0.4,0.6v176.2l-0.4,0.6h-13.7
			l-0.6-0.6v-36.5h-0.2c-9.9,16.1-24.5,27.7-43.8,34.8c-8,2.7-16.3,4-24.9,4c-25,0-46.5-11.2-64.5-33.5
			c-12.2-17.1-18.3-36-18.3-56.5v-0.8c0-24.9,8.6-46.6,25.9-65.3C2477.5,2667.1,2496.5,2658.8,2517.7,2658.8z M2449.5,2749
			c0,24.9,9.6,45.5,28.9,62c12.4,9.3,25.6,13.9,39.6,13.9c19,0,35.7-8,49.9-24c12.4-15,18.7-32.3,18.7-52c0-19.7-6.5-37.2-19.4-52.5
			c-14.1-15.4-30.5-23-49.3-23c-21.3,0-39.5,10-54.6,30.1C2454.1,2717.9,2449.5,2733,2449.5,2749z"/>
		<path class="st12" d="M2671.4,2561h14.7l0.2,0.2v97.6h53.5l0.2,0.2v14.7l-0.2,0.2h-53.5v118c0,9.3,2.2,16.9,6.7,23
			c2,2.5,3.9,4.3,5.5,5.1c4.7,3.2,9.2,4.8,13.5,4.8h0.8c5.5,0,12.7-2,21.9-6.1c1.1-0.6,1.8-1,2.1-1l6.5,13.5c-3,1.6-8,3.6-14.8,5.7
			c-6.1,1.8-11,2.7-14.8,2.7h-2.3c-6.3,0-13-2.1-20-6.3c-1.8-1-4.3-3.1-7.6-6.3c-3.9-4.3-6.9-9.1-8.7-14.5
			c-2.3-6.7-3.4-13.3-3.4-19.8v-118.9h-35.2l-0.2-0.2V2659l0.2-0.2h35.2V2561z"/>
		<path class="st12" d="M2792.3,2561h1.3c3,0,5.9,1.3,8.6,4c1.9,2.5,2.9,5,2.9,7.2v1.9c0,2.9-1.4,5.7-4.2,8.4
			c-2.3,1.9-4.9,2.9-7.8,2.9c-4.4,0-8-2-10.7-6.1c-1-1.9-1.5-3.7-1.5-5.5v-1.1c0-3.5,1.6-6.7,4.9-9.3
			C2788.1,2561.8,2790.3,2561,2792.3,2561z M2800.5,2658.8v180.6l-0.2,0.2h-14.7l-0.2-0.2v-180.6H2800.5z"/>
		<path class="st12" d="M2930.2,2658.8h1c24.7,0,46,10.9,63.7,32.7c12.6,17.6,18.8,36.4,18.8,56.3v2.7c0,24.2-8.8,45.9-26.4,64.9
			c-16.4,16.1-35.4,24.2-57.1,24.2c-25,0-46.5-11.2-64.5-33.5c-12.2-17.1-18.3-36-18.3-56.5v-0.8c0-24.9,8.6-46.6,25.9-65.3
			C2890.1,2667.1,2909.1,2658.8,2930.2,2658.8z M2862.1,2749c0,24.9,9.6,45.5,28.9,62c12.4,9.3,25.6,13.9,39.6,13.9
			c19,0,35.7-8,49.9-24c12.4-15,18.6-32.3,18.6-52c0-19.7-6.5-37.2-19.4-52.5c-14.1-15.4-30.5-23-49.3-23c-21.3,0-39.5,10-54.6,30.1
			C2866.7,2717.9,2862.1,2733,2862.1,2749z"/>
		<path class="st12" d="M3125.5,2658.8h12.8c24.4,0,42.9,8.8,55.8,26.4c6.5,9.8,9.7,21.3,9.7,34.6V2839l-0.6,0.6h-13.9l-0.4-0.6
			v-117.2c0-23.7-10.6-38.8-31.8-45.3c-6.1-1.8-13.1-2.7-21.1-2.7h-8.2c-24.5,0-40.8,8.6-48.9,25.9c-2.5,5.7-3.8,13-3.8,21.9V2839
			l-0.6,0.6h-13.9l-0.6-0.6v-177.2l0.6-0.6h13.9l0.6,0.6v20.4C3088,2666.6,3104.8,2658.8,3125.5,2658.8z"/>
		<path class="st12" d="M3313.3,2655.4h0.4c17.9,0,33.3,6,46.2,17.9c4.1,4.1,6.7,7.2,8,9.3c1.1,1.5,1.8,2.7,2.1,3.4l-13.3,7
			c-3.6-5.8-8.8-11-15.6-15.4c-8.4-4.8-17.6-7.2-27.6-7.2c-14,0-25.4,3.7-34.4,11c-3.6,3.3-5.6,5.6-6.3,7c-3.7,5.5-5.5,11-5.5,16.7
			v1.3c0,8.1,3.9,14.5,11.6,19.2c3.9,2.5,9.6,5.1,17.1,7.6c9.6,3,22.1,6,37.5,8.9c6,1.6,10.8,3.4,14.7,5.3c3.2,1.5,6.5,3.6,9.9,6.3
			c3.2,2.7,5.7,5.2,7.6,7.6c6.2,8.3,9.3,17.3,9.3,27.2c0,11.3-3.9,21.8-11.6,31.4c-3.2,3.6-5.6,5.9-7.2,7c-4.3,3.2-8,5.5-11,6.9
			c-10.4,4.9-21.4,7.4-33.1,7.4c-15.9,0-30.2-4.4-43-13.3c-2.3-1.7-5.4-4.4-9.3-8.2l-2.5-2.7c-3.7-4.6-6.3-8.4-8-11.4
			c-0.8-1.3-1.4-2.5-1.9-3.6c4.7-2.5,9.1-4.8,13.3-6.7c6.6,12.8,16.4,21.8,29.5,26.8c7.2,2.7,14.5,4,21.9,4
			c11.5,0,22.1-2.9,31.6-8.8c6.6-4.2,11.3-10.1,14.3-17.7c1.4-3.7,2.1-7.2,2.1-10.7v-1.1c0-7.7-3.1-14.7-9.3-20.9
			c-4.7-4.1-10.1-7.1-16.4-9.1c-2.8-0.8-9.1-2.1-18.8-4c-18.8-4.3-32-8.6-39.6-12.9c-15.7-7.9-23.6-19.7-23.6-35.4
			c0-11.5,4.2-22,12.6-31.4c3.4-3.6,6.1-5.9,8-7C3284.1,2659.4,3297.6,2655.4,3313.3,2655.4z"/>
	</g>
	<g>
		<path class="st0" d="M368.8,2354.9h-47.8c-6.1,0-9.1-2.7-9.1-8v-664.3c0-6.1,3-9.1,9.1-9.1h276.4c81.1,0,147.1,21.6,197.9,64.8
			c50.8,43.2,76.2,102,76.2,176.3c0,74.3-25.4,133.1-76.2,176.3c-50.8,43.2-116,64.8-195.6,64.8H377.9v190
			C377.9,2351.9,374.9,2354.9,368.8,2354.9z M596.3,1730.5l-220.7,1.1v369.7h220.7c62.2,0,113-16.7,152.4-50
			c38.7-32.6,58-77.7,58-135.4c0-56.9-19.3-102-58-135.4C709.3,1747.2,658.5,1730.5,596.3,1730.5z"/>
		<path class="st0" d="M1349.3,1661.1h-1.1c104.6,0,191.8,31.8,261.6,95.5c69.8,63.7,104.6,149,104.6,255.9s-34.9,192.2-104.6,255.9
			c-68.2,63-155.5,94.4-261.6,94.4c-103.9,0-190.7-31.5-260.5-94.4c-70.5-63.7-105.8-149-105.8-255.9s35.3-192.2,105.8-255.9
			C1158.2,1692.9,1245.4,1661.1,1349.3,1661.1z M1348.2,1718h-2.3c-84.9,0-156.6,26.9-215,80.8c-57.6,53.1-86.4,124.7-86.4,215
			c0,88.7,29.2,160.4,87.6,215c57.6,54.6,129.3,81.9,215,81.9c85.7,0,157.3-27.3,215-81.9c58.4-54.6,87.6-126.3,87.6-215
			c0-90.2-28.8-161.9-86.4-215C1504.8,1744.9,1433.1,1718,1348.2,1718z"/>
		<path class="st0" d="M1951,1681.6v616.5h401.5c2.3,0,4.5,1.1,6.8,3.4c2.3,2.3,3.4,4.5,3.4,6.8v36.4c0,2.3-1.1,4.5-3.4,6.8
			c-2.3,2.3-4.5,3.4-6.8,3.4h-456.1c-6.1,0-9.1-3-9.1-9.1v-664.3c0-6.1,3-9.1,9.1-9.1h45.5C1948,1672.5,1951,1675.5,1951,1681.6z"/>
		<path class="st0" d="M2556.1,1681.6v664.3c0,6.1-3,9.1-9.1,9.1h-45.5c-6.1,0-9.1-3-9.1-9.1v-664.3c0-6.1,3-9.1,9.1-9.1h45.5
			C2553.1,1672.5,2556.1,1675.5,2556.1,1681.6z"/>
		<path class="st0" d="M3061.1,2354.9h-283.2c-6.1,0-9.1-2.7-9.1-8v-664.3c0-6.1,3-9.1,9.1-9.1h279.8c105.4,0,193,31.5,262.7,94.4
			c69.8,63,104.6,144.8,104.6,245.7c0,104.6-32.2,187.7-96.7,249.1C3264,2324.2,3174.9,2354.9,3061.1,2354.9z M3057.7,1730.5
			l-226.4,1.1v568.7h227.5c98.6,0,173.3-25.4,224.1-76.2c51.6-51.6,77.4-120.9,77.4-208.2c0-85.7-28.4-154.7-85.3-207
			C3218.1,1756.6,3145.7,1730.5,3057.7,1730.5z"/>
		<path class="st0" d="M4119,2344.7l-71.7-143.3h-422l-72.8,143.3c-3.8,6.8-9.5,10.2-17.1,10.2h-43.2c-7.6,0-11.4-1.9-11.4-5.7
			c0-1.5,1.5-4.9,4.5-10.2l336.7-665.4h27.3l336.7,665.4c3,5.3,4.5,8.7,4.5,10.2c0,3.8-3.8,5.7-11.4,5.7h-44.4
			C4128.1,2354.9,4122.8,2351.5,4119,2344.7z M3789.1,1877.2l-136.5,267.3h365.1l-134.2-267.3L3838,1768h-4.5
			C3816,1816.5,3801.2,1852.9,3789.1,1877.2z"/>
	</g>
</g>
</svg>
