<svg width="236" height="254" viewBox="0 0 236 254" fill="none" xmlns="http://www.w3.org/2000/svg">
<g filter="url(#filter0_d_8_4)">
<path d="M53.1392 234.36H53.1945C54.5149 234.36 55.6851 234.906 56.6971 235.989C57.6064 237.072 58.057 238.298 58.057 239.666L58.0333 239.689H49.1622C49.1622 240.994 49.6524 242.124 50.6328 243.081C51.4076 243.753 52.2536 244.085 53.1708 244.085C54.3963 244.085 55.44 243.524 56.3018 242.417C56.539 242.069 56.7287 241.729 56.8631 241.405L56.8711 241.326C57.4166 241.5 57.6854 241.595 57.6854 241.626C57.5273 242.053 57.3138 242.464 57.0529 242.876C56.0013 244.259 54.6968 244.947 53.1392 244.947C51.6844 244.947 50.4272 244.291 49.3677 242.986C48.6562 241.982 48.3004 240.875 48.3004 239.673V239.642C48.3004 238.179 48.8064 236.906 49.8184 235.815C50.7909 234.843 51.8978 234.36 53.1392 234.36ZM49.2254 238.827H57.1082C57.0924 238.559 56.9422 238.108 56.6655 237.468C56.112 236.448 55.3609 235.768 54.3884 235.428C54.001 235.285 53.5898 235.214 53.1471 235.214C51.9769 235.214 50.9728 235.736 50.111 236.772C49.684 237.309 49.3915 237.997 49.2254 238.827Z" fill="#005E9E" stroke="#005E9E" stroke-miterlimit="10"/>
<path d="M60.6741 228.62H61.5359L61.5438 228.628V244.931L61.5359 244.939H60.6741L60.6662 244.931V228.628L60.6741 228.62Z" fill="#005E9E" stroke="#005E9E" stroke-miterlimit="10"/>
<path d="M68.8257 234.36H68.8811C70.2015 234.36 71.3716 234.906 72.3837 235.989C73.2929 237.072 73.7436 238.298 73.7436 239.666L73.7199 239.689H64.8488C64.8488 240.994 65.339 242.124 66.3194 243.081C67.0942 243.753 67.9402 244.085 68.8574 244.085C70.0829 244.085 71.1265 243.524 71.9884 242.417C72.2256 242.069 72.4153 241.729 72.5497 241.405L72.5576 241.326C73.1032 241.5 73.372 241.595 73.372 241.626C73.2139 242.053 73.0004 242.464 72.7395 242.876C71.6879 244.259 70.3833 244.947 68.8257 244.947C67.3709 244.947 66.1138 244.291 65.0543 242.986C64.3427 241.982 63.9869 240.875 63.9869 239.673V239.642C63.9869 238.179 64.493 236.906 65.505 235.815C66.4775 234.843 67.5844 234.36 68.8257 234.36ZM64.912 238.827H72.7948C72.779 238.559 72.6288 238.108 72.3521 237.468C71.7986 236.448 71.0475 235.768 70.075 235.428C69.6876 235.285 69.2764 235.214 68.8337 235.214C67.6635 235.214 66.6594 235.736 65.7975 236.772C65.3706 237.309 65.078 237.997 64.912 238.827Z" fill="#005E9E" stroke="#005E9E" stroke-miterlimit="10"/>
<path d="M77.0881 228.62H77.9499L77.9578 228.628V234.344H81.0888L81.0967 234.352V235.214L81.0888 235.222H77.9578V242.132C77.9578 242.678 78.0843 243.129 78.3452 243.484C78.4638 243.635 78.5745 243.737 78.6694 243.785C78.9461 243.975 79.207 244.062 79.46 244.062H79.5075C79.8238 244.062 80.2507 243.943 80.7883 243.706C80.8516 243.666 80.899 243.65 80.9148 243.65L81.2944 244.441C81.1125 244.536 80.8279 244.647 80.4246 244.773C80.0689 244.876 79.7763 244.931 79.5549 244.931H79.4205C79.0489 244.931 78.6615 244.805 78.2503 244.56C78.1476 244.496 77.9973 244.378 77.8076 244.188C77.5783 243.935 77.4044 243.65 77.2937 243.342C77.1592 242.947 77.096 242.559 77.096 242.18V235.214H75.0324L75.0245 235.206V234.344L75.0324 234.337H77.096V228.62H77.0881Z" fill="#005E9E" stroke="#005E9E" stroke-miterlimit="10"/>
<path d="M87.7698 234.273C88.4735 234.273 89.0744 234.439 89.5725 234.763C89.446 235.443 89.3749 235.776 89.3511 235.776C88.7661 235.428 88.2047 235.254 87.6828 235.254H87.5959C86.9159 235.254 86.2676 235.467 85.643 235.886C85.2872 236.202 85.0737 236.463 84.9946 236.669C84.7337 237.159 84.6072 237.657 84.6072 238.155V244.915L84.5756 244.947H83.7533L83.7217 244.915V234.526L83.7533 234.503H84.5677L84.5993 234.526V235.704H84.6072C84.6072 235.665 84.7732 235.507 85.0974 235.214C85.8643 234.582 86.7499 234.273 87.7698 234.273Z" fill="#005E9E" stroke="#005E9E" stroke-miterlimit="10"/>
<path d="M92.1184 228.62H92.1975C92.3793 228.62 92.5454 228.699 92.6956 228.857C92.8063 229.008 92.8616 229.15 92.8616 229.284V229.395C92.8616 229.569 92.7826 229.727 92.6165 229.885C92.4821 229.996 92.3319 230.051 92.158 230.051C91.897 230.051 91.6915 229.933 91.5333 229.695C91.4701 229.585 91.4464 229.474 91.4464 229.371V229.308C91.4464 229.102 91.5412 228.921 91.7389 228.762C91.8733 228.66 91.9998 228.62 92.1184 228.62ZM92.5928 234.344V244.923L92.5849 244.931H91.7231L91.7152 244.923V234.344H92.5928Z" fill="#005E9E" stroke="#005E9E" stroke-miterlimit="10"/>
<path d="M100.199 234.344H100.254C101.638 234.344 102.848 234.937 103.875 236.115L104.247 236.653C103.804 236.954 103.559 237.096 103.52 237.096C102.642 235.831 101.535 235.198 100.207 235.198C98.9576 235.198 97.8902 235.783 97.0047 236.962C96.467 237.8 96.1982 238.693 96.1982 239.626C96.1982 241.081 96.7596 242.298 97.8902 243.263C98.6176 243.809 99.3924 244.077 100.207 244.077C101.503 244.077 102.587 243.461 103.472 242.227C103.504 242.18 103.528 242.148 103.535 242.124C103.986 242.401 104.223 242.559 104.247 242.591C103.646 243.587 102.761 244.299 101.606 244.718C101.132 244.86 100.657 244.931 100.183 244.931C98.8706 244.931 97.7004 244.394 96.6963 243.318C95.787 242.259 95.3364 241.033 95.3364 239.666V239.618C95.3364 238.163 95.8424 236.882 96.8544 235.791C97.8507 234.827 98.9576 234.344 100.199 234.344Z" fill="#005E9E" stroke="#005E9E" stroke-miterlimit="10"/>
<path d="M115.443 234.147H115.466C116.518 234.147 117.419 234.495 118.178 235.198C118.416 235.436 118.574 235.617 118.645 235.744C118.708 235.831 118.756 235.902 118.771 235.942L117.989 236.353C117.783 236.013 117.475 235.712 117.071 235.451C116.581 235.167 116.044 235.024 115.459 235.024C114.644 235.024 113.964 235.238 113.442 235.673C113.237 235.862 113.11 236.005 113.071 236.084C112.857 236.4 112.747 236.732 112.747 237.064V237.143C112.747 237.618 112.976 237.997 113.427 238.266C113.656 238.416 113.988 238.567 114.431 238.709C114.992 238.891 115.727 239.065 116.629 239.231C116.977 239.326 117.261 239.428 117.491 239.539C117.68 239.626 117.87 239.752 118.068 239.911C118.257 240.069 118.4 240.219 118.51 240.353C118.874 240.836 119.056 241.365 119.056 241.951C119.056 242.615 118.827 243.223 118.376 243.793C118.186 243.998 118.052 244.141 117.949 244.204C117.696 244.394 117.483 244.52 117.301 244.607C116.692 244.9 116.044 245.042 115.364 245.042C114.431 245.042 113.593 244.781 112.841 244.259C112.707 244.164 112.525 244.006 112.296 243.777L112.154 243.619C111.94 243.35 111.782 243.129 111.687 242.947C111.64 242.876 111.608 242.804 111.576 242.733C111.853 242.583 112.114 242.457 112.359 242.346C112.747 243.097 113.324 243.619 114.091 243.919C114.518 244.077 114.945 244.156 115.372 244.156C116.052 244.156 116.668 243.983 117.222 243.643C117.609 243.397 117.886 243.05 118.06 242.607C118.139 242.393 118.186 242.18 118.186 241.982V241.919C118.186 241.468 118.004 241.057 117.641 240.693C117.364 240.456 117.048 240.274 116.684 240.156C116.518 240.108 116.154 240.029 115.577 239.919C114.478 239.666 113.703 239.413 113.261 239.16C112.335 238.701 111.877 238.005 111.877 237.088C111.877 236.408 112.122 235.799 112.612 235.246C112.81 235.04 112.968 234.898 113.079 234.835C113.727 234.384 114.518 234.147 115.443 234.147Z" fill="#005E9E" stroke="#005E9E" stroke-miterlimit="10"/>
<path d="M122.424 228.62H123.286L123.294 228.628V234.344H126.425L126.433 234.352V235.214L126.425 235.222H123.286V242.132C123.286 242.678 123.413 243.129 123.673 243.484C123.792 243.635 123.903 243.737 123.998 243.785C124.274 243.975 124.535 244.062 124.788 244.062H124.836C125.152 244.062 125.579 243.943 126.117 243.706C126.18 243.666 126.227 243.65 126.243 243.65L126.623 244.441C126.441 244.536 126.156 244.647 125.753 244.773C125.397 244.876 125.105 244.931 124.883 244.931H124.749C124.377 244.931 123.99 244.805 123.579 244.56C123.476 244.496 123.326 244.378 123.136 244.188C122.907 243.935 122.733 243.65 122.622 243.342C122.487 242.947 122.424 242.559 122.424 242.18V235.214H120.361L120.353 235.206V234.344L120.361 234.337H122.424V228.62Z" fill="#005E9E" stroke="#005E9E" stroke-miterlimit="10"/>
<path d="M133.225 234.344H133.28C134.774 234.344 136.047 235.024 137.107 236.384L137.249 236.622H137.257V234.479L137.288 234.447H138.095L138.119 234.479V244.805L138.095 244.836H137.288L137.257 244.805V242.662H137.249C136.672 243.603 135.818 244.283 134.687 244.702C134.221 244.86 133.731 244.939 133.225 244.939C131.762 244.939 130.497 244.283 129.445 242.978C128.734 241.974 128.378 240.867 128.378 239.666V239.618C128.378 238.163 128.884 236.882 129.896 235.791C130.868 234.827 131.983 234.344 133.225 234.344ZM129.232 239.634C129.232 241.089 129.793 242.306 130.924 243.271C131.651 243.816 132.426 244.085 133.24 244.085C134.355 244.085 135.328 243.619 136.158 242.678C136.885 241.8 137.249 240.788 137.249 239.634C137.249 238.48 136.869 237.46 136.11 236.558C135.288 235.657 134.324 235.206 133.225 235.206C131.975 235.206 130.908 235.791 130.022 236.969C129.501 237.807 129.232 238.693 129.232 239.634Z" fill="#005E9E" stroke="#005E9E" stroke-miterlimit="10"/>
<path d="M142.23 228.62H143.092L143.1 228.628V234.344H146.231L146.239 234.352V235.214L146.231 235.222H143.1V242.132C143.1 242.678 143.226 243.129 143.487 243.484C143.606 243.635 143.717 243.737 143.811 243.785C144.088 243.975 144.349 244.062 144.602 244.062H144.649C144.966 244.062 145.393 243.943 145.93 243.706C145.994 243.666 146.041 243.65 146.057 243.65L146.436 244.441C146.255 244.536 145.97 244.647 145.567 244.773C145.211 244.876 144.918 244.931 144.697 244.931H144.563C144.191 244.931 143.804 244.805 143.392 244.56C143.29 244.496 143.139 244.378 142.95 244.188C142.72 243.935 142.546 243.65 142.436 243.342C142.301 242.947 142.238 242.559 142.238 242.18V235.214H140.174L140.166 235.206V234.344L140.174 234.337H142.238V228.62H142.23Z" fill="#005E9E" stroke="#005E9E" stroke-miterlimit="10"/>
<path d="M149.314 228.62H149.393C149.575 228.62 149.741 228.699 149.892 228.857C150.002 229.008 150.058 229.15 150.058 229.284V229.395C150.058 229.569 149.978 229.727 149.812 229.885C149.678 229.996 149.528 230.051 149.354 230.051C149.093 230.051 148.887 229.933 148.729 229.695C148.666 229.585 148.642 229.474 148.642 229.371V229.308C148.642 229.102 148.737 228.921 148.935 228.762C149.069 228.66 149.196 228.62 149.314 228.62ZM149.789 234.344V244.923L149.781 244.931H148.919L148.911 244.923V234.344H149.789Z" fill="#005E9E" stroke="#005E9E" stroke-miterlimit="10"/>
<path d="M157.395 234.344H157.45C158.897 234.344 160.146 234.985 161.182 236.266C161.917 237.301 162.289 238.4 162.289 239.563V239.721C162.289 241.144 161.775 242.409 160.739 243.524C159.783 244.465 158.668 244.939 157.395 244.939C155.932 244.939 154.667 244.283 153.616 242.978C152.904 241.974 152.548 240.867 152.548 239.666V239.618C152.548 238.163 153.054 236.882 154.066 235.791C155.047 234.827 156.153 234.344 157.395 234.344ZM153.402 239.634C153.402 241.089 153.963 242.306 155.094 243.271C155.821 243.816 156.596 244.085 157.411 244.085C158.525 244.085 159.498 243.619 160.328 242.678C161.056 241.8 161.419 240.788 161.419 239.634C161.419 238.48 161.04 237.46 160.281 236.558C159.458 235.657 158.494 235.206 157.395 235.206C156.146 235.206 155.078 235.791 154.193 236.969C153.671 237.807 153.402 238.693 153.402 239.634Z" fill="#005E9E" stroke="#005E9E" stroke-miterlimit="10"/>
<path d="M168.836 234.344H169.587C171.01 234.344 172.101 234.858 172.852 235.894C173.232 236.463 173.421 237.143 173.421 237.926V244.908L173.39 244.939H172.575L172.552 244.908V238.037C172.552 236.645 171.927 235.76 170.694 235.38C170.338 235.277 169.927 235.222 169.452 235.222H168.97C167.539 235.222 166.582 235.728 166.108 236.74C165.958 237.072 165.886 237.499 165.886 238.021V244.9L165.855 244.931H165.033L165.001 244.9V234.518L165.033 234.487H165.847L165.879 234.518V235.712C166.638 234.803 167.626 234.344 168.836 234.344Z" fill="#005E9E" stroke="#005E9E" stroke-miterlimit="10"/>
<path d="M179.842 234.147H179.865C180.917 234.147 181.818 234.495 182.577 235.198C182.814 235.436 182.973 235.617 183.044 235.744C183.107 235.831 183.154 235.902 183.17 235.942L182.387 236.353C182.182 236.013 181.873 235.712 181.47 235.451C180.98 235.167 180.442 235.024 179.857 235.024C179.043 235.024 178.363 235.238 177.841 235.673C177.636 235.862 177.509 236.005 177.47 236.084C177.256 236.4 177.145 236.732 177.145 237.064V237.143C177.145 237.618 177.375 237.997 177.825 238.266C178.055 238.416 178.387 238.567 178.829 238.709C179.391 238.891 180.126 239.065 181.027 239.231C181.375 239.326 181.66 239.428 181.889 239.539C182.079 239.626 182.269 239.752 182.466 239.911C182.656 240.069 182.799 240.219 182.909 240.353C183.273 240.836 183.455 241.365 183.455 241.951C183.455 242.615 183.226 243.223 182.775 243.793C182.585 243.998 182.451 244.141 182.348 244.204C182.095 244.394 181.881 244.52 181.7 244.607C181.091 244.9 180.442 245.042 179.762 245.042C178.829 245.042 177.991 244.781 177.24 244.259C177.106 244.164 176.924 244.006 176.695 243.777L176.552 243.619C176.339 243.35 176.181 243.129 176.086 242.947C176.038 242.876 176.007 242.804 175.975 242.733C176.252 242.583 176.513 242.457 176.758 242.346C177.145 243.097 177.723 243.619 178.489 243.919C178.916 244.077 179.343 244.156 179.77 244.156C180.45 244.156 181.067 243.983 181.62 243.643C182.008 243.397 182.285 243.05 182.459 242.607C182.538 242.393 182.585 242.18 182.585 241.982V241.919C182.585 241.468 182.403 241.057 182.04 240.693C181.763 240.456 181.447 240.274 181.083 240.156C180.917 240.108 180.553 240.029 179.976 239.919C178.877 239.666 178.102 239.413 177.659 239.16C176.734 238.701 176.276 238.005 176.276 237.088C176.276 236.408 176.521 235.799 177.011 235.246C177.209 235.04 177.367 234.898 177.477 234.835C178.126 234.384 178.916 234.147 179.842 234.147Z" fill="#005E9E" stroke="#005E9E" stroke-miterlimit="10"/>
<path d="M7.32866 216.539H4.52974C4.17394 216.539 4 216.381 4 216.072V177.156C4 176.801 4.17394 176.627 4.52974 176.627H20.7223C25.4742 176.627 29.3405 177.892 32.3212 180.422C35.2941 182.952 36.7884 186.399 36.7884 190.748C36.7884 195.104 35.302 198.544 32.3212 201.074C29.3405 203.604 25.5216 204.869 20.8568 204.869H7.85839V216.001C7.85839 216.365 7.68445 216.539 7.32866 216.539ZM20.6512 179.955L7.72398 180.019V201.675H20.6512C24.2961 201.675 27.269 200.694 29.5777 198.741C31.8468 196.828 32.9775 194.187 32.9775 190.811C32.9775 187.482 31.8468 184.834 29.5777 182.881C27.2769 180.936 24.2961 179.955 20.6512 179.955Z" fill="#005E9E"/>
<path d="M64.7697 175.891H64.7064C70.834 175.891 75.9495 177.757 80.0372 181.489C84.1249 185.221 86.1648 190.218 86.1648 196.48C86.1648 202.742 84.117 207.739 80.0372 211.471C76.0365 215.155 70.9289 217.005 64.7064 217.005C58.6184 217.005 53.5345 215.163 49.4468 211.471C45.3117 207.739 43.2481 202.742 43.2481 196.48C43.2481 190.218 45.3117 185.221 49.4468 181.489C53.574 177.757 58.6817 175.891 64.7697 175.891ZM64.7064 179.22H64.572C59.5988 179.22 55.4004 180.801 51.9769 183.948C48.6008 187.055 46.9088 191.254 46.9088 196.543C46.9088 201.738 48.6166 205.936 52.0402 209.138C55.4163 212.341 59.6146 213.938 64.6353 213.938C69.6559 213.938 73.8543 212.341 77.2304 209.138C80.6539 205.936 82.3618 201.738 82.3618 196.543C82.3618 191.254 80.6698 187.055 77.2937 183.948C73.878 180.801 69.6797 179.22 64.7064 179.22Z" fill="#005E9E"/>
<path d="M100.025 177.093V213.21H123.547C123.681 213.21 123.816 213.273 123.95 213.408C124.085 213.542 124.148 213.677 124.148 213.811V215.946C124.148 216.08 124.085 216.215 123.95 216.349C123.816 216.484 123.681 216.547 123.547 216.547H96.8228C96.467 216.547 96.2931 216.373 96.2931 216.017V177.101C96.2931 176.745 96.467 176.571 96.8228 176.571H99.4873C99.8431 176.556 100.025 176.737 100.025 177.093Z" fill="#005E9E"/>
<path d="M135.478 177.093V216.009C135.478 216.365 135.296 216.539 134.948 216.539H132.284C131.928 216.539 131.754 216.365 131.754 216.009V177.093C131.754 176.737 131.928 176.563 132.284 176.563H134.948C135.296 176.555 135.478 176.737 135.478 177.093Z" fill="#005E9E"/>
<path d="M165.064 216.539H148.468C148.113 216.539 147.939 216.381 147.939 216.072V177.156C147.939 176.801 148.113 176.627 148.468 176.627H164.859C171.034 176.627 176.165 178.469 180.253 182.161C184.34 185.846 186.38 190.645 186.38 196.559C186.38 202.687 184.491 207.557 180.719 211.155C176.948 214.744 171.729 216.539 165.064 216.539ZM164.867 179.955L151.607 180.019V213.337H164.938C170.709 213.337 175.09 211.85 178.063 208.87C181.083 205.849 182.593 201.785 182.593 196.678C182.593 191.657 180.925 187.617 177.596 184.549C174.259 181.489 170.022 179.955 164.867 179.955Z" fill="#005E9E"/>
<path d="M227.044 215.946L222.845 207.549H198.121L193.86 215.946C193.638 216.349 193.306 216.547 192.864 216.547H190.333C189.891 216.547 189.669 216.436 189.669 216.215C189.669 216.128 189.756 215.93 189.938 215.614L209.665 176.627H211.262L230.989 215.614C231.163 215.922 231.258 216.128 231.258 216.215C231.258 216.436 231.036 216.547 230.594 216.547H227.992C227.573 216.539 227.265 216.341 227.044 215.946ZM207.72 188.55L199.726 204.213H221.122L213.255 188.55L210.59 182.153H210.321C209.293 185 208.424 187.134 207.72 188.55Z" fill="#005E9E"/>
<path d="M114.914 48.2378L115.254 39.4853C126.924 53.4166 139.306 63.3868 149.964 70.139C149.988 70.1073 150.003 70.0757 150.027 70.052C153.055 65.7746 154.565 60.8646 154.565 55.3221C154.565 51.1475 153.625 47.3681 151.751 43.992C149.877 40.6159 147.418 38.0305 144.374 36.2278C141.33 34.433 138.207 33.3894 135.005 33.0968C131.802 32.8043 126.727 32.6541 119.777 32.6541H98.342L114.914 48.2378Z" fill="url(#paint0_linear_8_4)"/>
<path d="M121.129 56.0811L120.472 64.8811C110.89 60.5641 100.216 50.7284 93.0525 43.3674L95.7882 47.8662L84.9799 112.589C93.5981 112.589 100.967 106.359 102.39 97.8593L105.3 80.5518H124.568C130.427 80.5518 135.376 79.8719 139.416 78.504C141.773 77.7055 143.955 76.4088 145.963 74.6298C157.681 79.0575 169.24 79.9509 169.24 79.9509C142.848 74.4717 121.129 56.0811 121.129 56.0811Z" fill="url(#paint1_linear_8_4)"/>
<path d="M192.042 57.5834V50.6809C192.042 49.8428 191.363 49.1629 190.524 49.1629C189.686 49.1629 189.006 49.8428 189.006 50.6809V57.5834H185.543H182.096V50.6809C182.096 49.8428 181.416 49.1629 180.578 49.1629C179.74 49.1629 179.06 49.8428 179.06 50.6809V57.5834H176.973V66.581C176.973 69.6646 178.562 72.5583 181.234 74.3215C181.867 74.7406 182.555 75.0568 183.258 75.2703C181.859 111.909 151.616 141.29 114.637 141.29C76.773 141.29 45.9691 110.486 45.9691 72.6216C45.9691 34.7572 76.773 3.95327 114.637 3.95327C115.729 3.95327 116.614 3.06774 116.614 1.97664C116.614 0.885533 115.729 0 114.637 0C104.833 0 95.3217 1.92129 86.3636 5.70852C77.7139 9.36925 69.9496 14.6034 63.2765 21.2765C56.6034 27.9496 51.3693 35.7139 47.7085 44.3636C43.9213 53.3217 42 62.8333 42 72.6374C42 82.4415 43.9213 91.9531 47.7085 100.911C51.3693 109.561 56.6034 117.325 63.2765 123.998C69.9496 130.671 77.7139 135.906 86.3636 139.566C95.3217 143.354 104.833 145.275 114.637 145.275C124.442 145.275 133.953 143.354 142.911 139.566C151.561 135.906 159.325 130.671 165.998 123.998C172.671 117.325 177.906 109.561 181.566 100.911C184.99 92.8149 186.887 84.2679 187.219 75.46C188.145 75.2545 189.046 74.8829 189.868 74.3452C192.533 72.5821 194.13 69.6883 194.13 66.6047V57.6071H192.042V57.5834Z" fill="#8FE682"/>
</g>
<defs>
<filter id="filter0_d_8_4" x="0" y="0" width="235.258" height="253.542" filterUnits="userSpaceOnUse" color-interpolation-filters="sRGB">
<feFlood flood-opacity="0" result="BackgroundImageFix"/>
<feColorMatrix in="SourceAlpha" type="matrix" values="0 0 0 0 0 0 0 0 0 0 0 0 0 0 0 0 0 0 127 0" result="hardAlpha"/>
<feOffset dy="4"/>
<feGaussianBlur stdDeviation="2"/>
<feComposite in2="hardAlpha" operator="out"/>
<feColorMatrix type="matrix" values="0 0 0 0 0 0 0 0 0 0 0 0 0 0 0 0 0 0 0.25 0"/>
<feBlend mode="normal" in2="BackgroundImageFix" result="effect1_dropShadow_8_4"/>
<feBlend mode="normal" in="SourceGraphic" in2="effect1_dropShadow_8_4" result="shape"/>
</filter>
<linearGradient id="paint0_linear_8_4" x1="114.125" y1="26.7826" x2="180.311" y2="92.9679" gradientUnits="userSpaceOnUse">
<stop stop-color="#00AAB9"/>
<stop offset="1" stop-color="#005E9E"/>
</linearGradient>
<linearGradient id="paint1_linear_8_4" x1="142.173" y1="50.6445" x2="30.1625" y2="162.655" gradientUnits="userSpaceOnUse">
<stop stop-color="#F9F871"/>
<stop offset="0.5502" stop-color="#00CBA2"/>
<stop offset="1" stop-color="#00AAB9"/>
</linearGradient>
</defs>
</svg>
